<svg height="2391" viewBox="0 0 4500 2391" width="4500" xmlns:xlink="http://www.w3.org/1999/xlink" xmlns:ev="http://www.w3.org/2001/xml-events" xmlns="http://www.w3.org/2000/svg"><style type="text/css"><![CDATA[
.st2 {fill:#1f6391;font-family:宋体;font-size:10pt}
.st1 {fill:#ffffff;font-family:宋体;font-size:10pt}
.st3 {fill:#ffffff;font-family:宋体;font-size:7pt}
]]></style><defs/><g id="page1" transform="translate(5,5)"><rect y="0" height="2381" width="4490" stroke="#808080" x="0" fill="#ffffff"/><g transform="translate(208,198)"><path d="M23.5,56L70.5,56C83.5,56,94,45.5,94,28C94,10.5,83.5,0,70.5,0L23.5,0C10.5,0,0,10.5,0,28C0,45.5,10.5,56,23.5,56z" stroke="#3498db" id="shape1" fill="#3498db"/><text class="st1"><tspan y="31.5" x="34">开始</tspan></text></g><g transform="translate(208,317.05)"><path d="M94,62L94,0L0,0L0,62L94,62z" stroke="#3498db" id="shape2" fill="#3498db"/><text class="st1"><tspan y="26" x="8">客户端与服务</tspan><tspan y="43" x="15">器建立链接</tspan></text></g><g transform="translate(208,777)"><path d="M23.5,56L70.5,56C83.5,56,94,45.5,94,28C94,10.5,83.5,0,70.5,0L23.5,0C10.5,0,0,10.5,0,28C0,45.5,10.5,56,23.5,56z" stroke="#3498db" id="shape3" fill="#3498db"/><text class="st1"><tspan y="31.5" x="34">结束</tspan></text></g><g id="shape4" transform="translate(255,254)"><path d="M0,0L0,58.7" stroke="#236ea1" fill="none"/><path stroke-width="1" stroke-linecap="round" d="M0,63L3,57.9C2.1,58.4,1.1,58.7,0,58.7C-1.1,58.7,-2.1,58.4,-3,57.9L0,63" stroke="#236ea1" fill="#236ea1"/></g><g transform="translate(208,438)"><path d="M94,56L94,0L0,0L0,56L94,56z" stroke="#3498db" id="shape5" fill="#3498db"/><text class="st1"><tspan y="31.5" x="21">游戏开始</tspan></text></g><g transform="translate(208,546)"><path d="M94,56L94,0L0,0L0,56L94,56z" stroke="#3498db" id="shape6" fill="#3498db"/><text class="st1"><tspan y="31.5" x="21">游戏结束</tspan></text></g><g transform="translate(208,658.5)"><path d="M94,62L94,0L0,0L0,62L94,62z" stroke="#3498db" id="shape7" fill="#3498db"/><text class="st1"><tspan y="26" x="8">客户端与服务</tspan><tspan y="43" x="28">端断开</tspan></text></g><g id="shape8" transform="translate(255,602)"><path d="M0,0L0,52.1" stroke="#236ea1" fill="none"/><path stroke-width="1" stroke-linecap="round" d="M0,56.5L3,51.3C2.1,51.8,1.1,52.1,0,52.1C-1.1,52.1,-2.1,51.8,-3,51.3L0,56.5" stroke="#236ea1" fill="#236ea1"/></g><g id="shape9" transform="translate(255,720.5)"><path d="M0,0L0,52.1" stroke="#236ea1" fill="none"/><path stroke-width="1" stroke-linecap="round" d="M0,56.5L3,51.3C2.1,51.8,1.1,52.1,0,52.1C-1.1,52.1,-2.1,51.8,-3,51.3L0,56.5" stroke="#236ea1" fill="#236ea1"/></g><g transform="translate(784,709)"><path d="M95,62L190,31L95,0L0,31L95,62z" stroke="#3498db" id="shape10" fill="#3498db"/><text class="st1"><tspan y="34.5" x="63">是否为闲家</tspan></text></g><g transform="translate(1649,798.5)"><path d="M94,113L94,0L0,0L0,113L94,113z" stroke="#3498db" id="shape11" fill="#3498db"/><text class="st1"><tspan y="26" x="10">top显示部分</tspan><tspan y="43" x="12">client1卡牌</tspan><tspan y="60" x="11">bottom显示</tspan><tspan y="77" x="12">client2卡牌</tspan><tspan y="94" x="15">并显示点数</tspan></text></g><g id="shape12" transform="translate(974,740)"><path d="M0,0L722,0L722,54.1" stroke="#236ea1" fill="none"/><path stroke-width="1" stroke-linecap="round" d="M722,58.5L725,53.3C724.1,53.8,723.1,54.1,722,54.1C720.9,54.1,719.9,53.8,719,53.3L722,58.5" stroke="#236ea1" fill="#236ea1"/><rect y="-8.5" height="17" width="30.7" x="4.7" fill="#ffffff"/><text class="st2"><tspan y="3.5" x="4.6">false</tspan></text></g><g id="shape13" transform="translate(784,740)"><path d="M0,0L-143,0L-143,54.1" stroke="#236ea1" fill="none"/><path stroke-width="1" stroke-linecap="round" d="M-143,58.5L-140,53.3C-140.9,53.8,-141.9,54.1,-143,54.1C-144.1,54.1,-145.1,53.8,-146,53.3L-143,58.5" stroke="#236ea1" fill="#236ea1"/><rect y="-8.5" height="17" width="26.6" x="-33.2" fill="#ffffff"/><text class="st2"><tspan y="3.5" x="-33.3">true</tspan></text></g><g transform="translate(594,798.5)"><path d="M94,113L94,0L0,0L0,113L94,113z" stroke="#3498db" id="shape14" fill="#3498db"/><text class="st1"><tspan y="26" x="10">top显示部分</tspan><tspan y="43" x="12">client1卡牌</tspan><tspan y="60" x="11">bottom显示</tspan><tspan y="77" x="12">client2卡牌</tspan><tspan y="94" x="15">并显示点数</tspan></text></g><g transform="translate(832,590)"><path d="M94,62L94,0L0,0L0,62L94,62z" stroke="#3498db" id="shape15" fill="#3498db"/><text class="st1"><tspan y="26" x="13">server发牌</tspan><tspan y="43" x="23">给client</tspan></text></g><g id="shape16" transform="translate(879,652)"><path d="M0,0L0,52.6" stroke="#236ea1" fill="none"/><path stroke-width="1" stroke-linecap="round" d="M0,57L3,51.8C2.1,52.3,1.1,52.6,0,52.6C-1.1,52.6,-2.1,52.3,-3,51.8L0,57" stroke="#236ea1" fill="#236ea1"/></g><g id="shape17" transform="translate(1696,911.5)"><path d="M0,0L0,63.1" stroke="#236ea1" fill="none"/><path stroke-width="1" stroke-linecap="round" d="M0,67.5L3,62.3C2.1,62.8,1.1,63.1,0,63.1C-1.1,63.1,-2.1,62.8,-3,62.3L0,67.5" stroke="#236ea1" fill="#236ea1"/></g><g id="shape18" transform="translate(255,379.05)"><path d="M0,0L0,54.6" stroke="#236ea1" fill="none"/><path stroke-width="1" stroke-linecap="round" d="M0,59L3,53.8C2.1,54.3,1.1,54.6,0,54.6C-1.1,54.6,-2.1,54.3,-3,53.8L0,59" stroke="#236ea1" fill="#236ea1"/></g><g id="shape19" transform="translate(302,466)"><path d="M0,0L577,0L577,119.6" stroke="#236ea1" fill="none"/><path stroke-width="1" stroke-linecap="round" d="M577,124L580,118.8C579.1,119.3,578.1,119.6,577,119.6C575.9,119.6,574.9,119.3,574,118.8L577,124" stroke="#236ea1" fill="#236ea1"/></g><g transform="translate(594,947)"><path d="M47,56L94,28L47,0L0,28L47,56z" stroke="#3498db" id="shape20" fill="#3498db"/><text class="st1"><tspan y="31.5" x="21">是否要牌</tspan></text></g><g id="shape21" transform="translate(641,911.5)"><path d="M0,0L0,31.1" stroke="#236ea1" fill="none"/><path stroke-width="1" stroke-linecap="round" d="M0,35.5L3,30.3C2.1,30.8,1.1,31.1,0,31.1C-1.1,31.1,-2.1,30.8,-3,30.3L0,35.5" stroke="#236ea1" fill="#236ea1"/></g><g transform="translate(335,1025)"><path d="M94,62L94,0L0,0L0,62L94,62z" stroke="#3498db" id="shape22" fill="#3498db"/><text class="st1"><tspan y="26" x="15">要牌并发送</tspan><tspan y="43" x="34">卡牌</tspan></text></g><g id="shape23" transform="translate(594,975)"><path d="M0,0L-212,0L-212,45.6" stroke="#236ea1" fill="none"/><path stroke-width="1" stroke-linecap="round" d="M-212,50L-209,44.8C-209.9,45.3,-210.9,45.6,-212,45.6C-213.1,45.6,-214.1,45.3,-215,44.8L-212,50" stroke="#236ea1" fill="#236ea1"/><rect y="-8.5" height="17" width="7.2" x="-23.9" fill="#ffffff"/><text class="st2"><tspan y="3.5" x="-24">Y</tspan></text></g><g transform="translate(305.5,1125)"><path d="M76.5,62L153,31L76.5,0L0,31L76.5,62z" stroke="#3498db" id="shape24" fill="#3498db"/><text class="st1"><tspan y="34.5" x="16"> client 1 point >21</tspan></text></g><g id="shape25" transform="translate(382,1087)"><path d="M0,0L0,33.6" stroke="#236ea1" fill="none"/><path stroke-width="1" stroke-linecap="round" d="M0,38L3,32.8C2.1,33.3,1.1,33.6,0,33.6C-1.1,33.6,-2.1,33.3,-3,32.8L0,38" stroke="#236ea1" fill="#236ea1"/></g><g id="shape26" transform="translate(305.5,1156)"><path d="M0,0L-53.5,0L-53.5,-222L335.5,-222L335.5,-213.4" stroke="#236ea1" fill="none"/><path stroke-width="1" stroke-linecap="round" d="M335.5,-209L338.5,-214.2C337.6,-213.7,336.6,-213.4,335.5,-213.4C334.4,-213.4,333.4,-213.7,332.5,-214.2L335.5,-209" stroke="#236ea1" fill="#236ea1"/><rect y="-8.5" height="17" width="9.2" x="-24.7" fill="#ffffff"/><text class="st2"><tspan y="3.5" x="-24.9">N</tspan></text></g><g transform="translate(447,1213)"><path d="M94,56L94,0L0,0L0,56L94,56z" stroke="#3498db" id="shape27" fill="#3498db"/><text class="st1"><tspan y="31.5" x="10">client 2 win</tspan></text></g><g id="shape28" transform="translate(458.5,1156)"><path d="M0,0L35.5,0L35.5,52.6" stroke="#236ea1" fill="none"/><path stroke-width="1" stroke-linecap="round" d="M35.5,57L38.5,51.8C37.6,52.3,36.6,52.6,35.5,52.6C34.4,52.6,33.4,52.3,32.5,51.8L35.5,57" stroke="#236ea1" fill="#236ea1"/><rect y="-8.5" height="17" width="7.2" x="16.1" fill="#ffffff"/><text class="st2"><tspan y="3.5" x="16">Y</tspan></text></g><g transform="translate(781.25,1025)"><path d="M82.8,62L165.5,31L82.8,0L0,31L82.8,62z" stroke="#3498db" id="shape29" fill="#3498db"/><text class="st1"><tspan y="34.5" x="17.3">client 2 是否结束要牌</tspan></text></g><g id="shape30" transform="translate(688,975)"><path d="M0,0L176,0L176,45.6" stroke="#236ea1" fill="none"/><path stroke-width="1" stroke-linecap="round" d="M176,50L179,44.8C178.1,45.3,177.1,45.6,176,45.6C174.9,45.6,173.9,45.3,173,44.8L176,50" stroke="#236ea1" fill="#236ea1"/><rect y="-8.5" height="17" width="9.2" x="15.3" fill="#ffffff"/><text class="st2"><tspan y="3.5" x="15.1">N</tspan></text></g><g id="shape31" transform="translate(781.25,1056)"><path d="M0,0L-61.3,0L-61.3,26.6" stroke="#236ea1" fill="none"/><path stroke-width="1" stroke-linecap="round" d="M-61.3,31L-58.3,25.8C-59.1,26.3,-60.2,26.6,-61.3,26.6C-62.3,26.6,-63.4,26.3,-64.3,25.8L-61.3,31" stroke="#236ea1" fill="#236ea1"/><rect y="2.5" height="17" width="7.2" x="-65.1" fill="#ffffff"/><text class="st2"><tspan y="14.5" x="-65.2">Y</tspan></text></g><g transform="translate(635,1087)"><path d="M85,56L170,28L85,0L0,28L85,56z" stroke="#3498db" id="shape32" fill="#3498db"/><text class="st3"><tspan y="30" x="57"> Point 2 >21</tspan></text></g><g transform="translate(564,1181)"><path d="M94,56L94,0L0,0L0,56L94,56z" stroke="#3498db" id="shape33" fill="#3498db"/><text class="st1"><tspan y="31.5" x="10">client 1 win</tspan></text></g><g id="shape34" transform="translate(635,1115)"><path d="M0,0L-24,0L-24,61.6" stroke="#236ea1" fill="none"/><path stroke-width="1" stroke-linecap="round" d="M-24,66L-21,60.8C-21.9,61.3,-22.9,61.6,-24,61.6C-25.1,61.6,-26.1,61.3,-27,60.8L-24,66" stroke="#236ea1" fill="#236ea1"/><rect y="12.5" height="17" width="7.2" x="-27.9" fill="#ffffff"/><text class="st2"><tspan y="24.5" x="-28">Y</tspan></text></g><g transform="translate(773,1178)"><path d="M89.5,47L179,23.5L89.5,0L0,23.5L89.5,47z" stroke="#3498db" id="shape35" fill="#3498db"/><text class="st3"><tspan y="25.5" x="29">Point 1 =21 and Point =21</tspan></text></g><g id="shape36" transform="translate(805,1115)"><path d="M0,0L57.5,0L57.5,58.6" stroke="#236ea1" fill="none"/><path stroke-width="1" stroke-linecap="round" d="M57.5,63L60.5,57.8C59.6,58.3,58.6,58.6,57.5,58.6C56.4,58.6,55.4,58.3,54.5,57.8L57.5,63" stroke="#236ea1" fill="#236ea1"/><rect y="-5.8" height="17" width="9.2" x="52.8" fill="#ffffff"/><text class="st2"><tspan y="6.3" x="52.6">N</tspan></text></g><g id="shape37" transform="translate(773,1201.5)"><path d="M0,0L-30,0L-30,59.1" stroke="#236ea1" fill="none"/><path stroke-width="1" stroke-linecap="round" d="M-30,63.5L-27,58.3C-27.9,58.8,-28.9,59.1,-30,59.1C-31.1,59.1,-32.1,58.8,-33,58.3L-30,63.5" stroke="#236ea1" fill="#236ea1"/><rect y="-8.5" height="17" width="9.2" x="-24.7" fill="#ffffff"/><text class="st2"><tspan y="3.5" x="-24.9">N</tspan></text></g><g transform="translate(673,1265)"><path d="M70,39L140,19.5L70,0L0,19.5L70,39z" stroke="#3498db" id="shape38" fill="#3498db"/><text class="st3"><tspan y="21.5" x="32">Point 1 > Point 2</tspan></text></g><g id="shape39" transform="translate(673,1284.5)"><path d="M0,0L-32,0L-32,66.1" stroke="#236ea1" fill="none"/><path stroke-width="1" stroke-linecap="round" d="M-32,70.5L-29,65.3C-29.9,65.8,-30.9,66.1,-32,66.1C-33.1,66.1,-34.1,65.8,-35,65.3L-32,70.5" stroke="#236ea1" fill="#236ea1"/><rect y="10.8" height="17" width="7.2" x="-35.9" fill="#ffffff"/><text class="st2"><tspan y="22.8" x="-36">Y</tspan></text></g><g transform="translate(594,1355)"><path d="M94,56L94,0L0,0L0,56L94,56z" stroke="#3498db" id="shape40" fill="#3498db"/><text class="st1"><tspan y="31.5" x="10">client 1 win</tspan></text></g><g id="shape41" transform="translate(813,1284.5)"><path d="M0,0L71,0L71,66.1" stroke="#236ea1" fill="none"/><path stroke-width="1" stroke-linecap="round" d="M71,70.5L74,65.3C73.1,65.8,72.1,66.1,71,66.1C69.9,66.1,68.9,65.8,68,65.3L71,70.5" stroke="#236ea1" fill="#236ea1"/><rect y="-8.5" height="17" width="9.2" x="15.3" fill="#ffffff"/><text class="st2"><tspan y="3.5" x="15.1">N</tspan></text></g><g id="shape42" transform="translate(952,1201.5)"><path d="M0,0L95,0L95,47.6" stroke="#236ea1" fill="none"/><path stroke-width="1" stroke-linecap="round" d="M95,52L98,46.8C97.1,47.3,96.1,47.6,95,47.6C93.9,47.6,92.9,47.3,92,46.8L95,52" stroke="#236ea1" fill="#236ea1"/><rect y="-8.5" height="17" width="7.2" x="16.1" fill="#ffffff"/><text class="st2"><tspan y="3.5" x="16">Y</tspan></text></g><g transform="translate(837,1355)"><path d="M94,56L94,0L0,0L0,56L94,56z" stroke="#3498db" id="shape43" fill="#3498db"/><text class="st1"><tspan y="31.5" x="10">client 2 win</tspan></text></g><g id="shape44" transform="translate(447,1241)"><path d="M0,0L-271,0L-271,-667L-243.4,-667" stroke="#236ea1" fill="none"/><path stroke-width="1" stroke-linecap="round" d="M-239,-667L-244.2,-670C-243.7,-669.1,-243.4,-668.1,-243.4,-667C-243.4,-665.9,-243.7,-664.9,-244.2,-664L-239,-667" stroke="#236ea1" fill="#236ea1"/></g><g id="shape45" transform="translate(611,1237)"><path d="M0,0L0,64L-435,64L-435,-663L-407.4,-663" stroke="#236ea1" fill="none"/><path stroke-width="1" stroke-linecap="round" d="M-403,-663L-408.2,-666C-407.7,-665.1,-407.4,-664.1,-407.4,-663C-407.4,-661.9,-407.7,-660.9,-408.2,-660L-403,-663" stroke="#236ea1" fill="#236ea1"/></g><g id="shape46" transform="translate(594,1383)"><path d="M0,0L-418,0L-418,-809L-390.4,-809" stroke="#236ea1" fill="none"/><path stroke-width="1" stroke-linecap="round" d="M-386,-809L-391.2,-812C-390.7,-811.1,-390.4,-810.1,-390.4,-809C-390.4,-807.9,-390.7,-806.9,-391.2,-806L-386,-809" stroke="#236ea1" fill="#236ea1"/></g><g id="shape47" transform="translate(884,1411)"><path d="M0,0L0,32L-708,32L-708,-837L-680.4,-837" stroke="#236ea1" fill="none"/><path stroke-width="1" stroke-linecap="round" d="M-676,-837L-681.2,-840C-680.7,-839.1,-680.4,-838.1,-680.4,-837C-680.4,-835.9,-680.7,-834.9,-681.2,-834L-676,-837" stroke="#236ea1" fill="#236ea1"/></g><g transform="translate(1613,979)"><path d="M83,56L166,28L83,0L0,28L83,56z" stroke="#3498db" id="shape48" fill="#3498db"/><text class="st1"><tspan y="31.5" x="18">client 2 是否结束要牌</tspan></text></g><g id="shape49" transform="translate(1779,1007)"><path d="M0,0L75,0L75,75.6" stroke="#236ea1" fill="none"/><path stroke-width="1" stroke-linecap="round" d="M75,80L78,74.8C77.1,75.3,76.1,75.6,75,75.6C73.9,75.6,72.9,75.3,72,74.8L75,80" stroke="#236ea1" fill="#236ea1"/><rect y="-8.5" height="17" width="9.2" x="15.3" fill="#ffffff"/><text class="st2"><tspan y="3.5" x="15.1">N</tspan></text></g><g transform="translate(1807,1087)"><path d="M94,79L94,0L0,0L0,79L94,79z" stroke="#3498db" id="shape50" fill="#3498db"/><text class="st1"><tspan y="26" x="21">接收发给</tspan><tspan y="43" x="10">client2 的卡</tspan><tspan y="60" x="21">牌并显示</tspan></text></g><g id="shape51" transform="translate(1901,1126.5)"><path d="M0,0L31,0L31,-179.5L-205,-179.5L-205,-151.9" stroke="#236ea1" fill="none"/><path stroke-width="1" stroke-linecap="round" d="M-205,-147.5L-202,-152.7C-202.9,-152.2,-203.9,-151.9,-205,-151.9C-206.1,-151.9,-207.1,-152.2,-208,-152.7L-205,-147.5" stroke="#236ea1" fill="#236ea1"/></g><g transform="translate(1408,1232)"><path d="M80.5,62L161,31L80.5,0L0,31L80.5,62z" stroke="#3498db" id="shape52" fill="#3498db"/><text class="st1"><tspan y="34.5" x="17">client 1 Point >=17</tspan></text></g><g transform="translate(1441.5,1354.5)"><path d="M94,56L94,0L0,0L0,56L94,56z" stroke="#3498db" id="shape53" fill="#3498db"/><text class="st1"><tspan y="31.5" x="34">要牌</tspan></text></g><g id="shape54" transform="translate(1488.5,1294)"><path d="M0,0L0,56.1" stroke="#236ea1" fill="none"/><path stroke-width="1" stroke-linecap="round" d="M0,60.5L3,55.3C2.1,55.8,1.1,56.1,0,56.1C-1.1,56.1,-2.1,55.8,-3,55.3L0,60.5" stroke="#236ea1" fill="#236ea1"/><rect y="11.5" height="17" width="9.2" x="-4.7" fill="#ffffff"/><text class="st2"><tspan y="23.5" x="-4.9">N</tspan></text></g><g id="shape55" transform="translate(1488.5,1113)"><path d="M0,0L0,114.6" stroke="#236ea1" fill="none"/><path stroke-width="1" stroke-linecap="round" d="M0,119L3,113.8C2.1,114.3,1.1,114.6,0,114.6C-1.1,114.6,-2.1,114.3,-3,113.8L0,119" stroke="#236ea1" fill="#236ea1"/><rect y="11.5" height="17" width="9.2" x="-4.7" fill="#ffffff"/><text class="st2"><tspan y="23.5" x="-4.9">N</tspan></text></g><g transform="translate(1274,1354.5)"><path d="M94,56L94,0L0,0L0,56L94,56z" stroke="#3498db" id="shape56" fill="#3498db"/><text class="st1"><tspan y="31.5" x="21">停止要牌</tspan></text></g><g id="shape57" transform="translate(1408,1263)"><path d="M0,0L-87,0L-87,87.1" stroke="#236ea1" fill="none"/><path stroke-width="1" stroke-linecap="round" d="M-87,91.5L-84,86.3C-84.9,86.8,-85.9,87.1,-87,87.1C-88.1,87.1,-89.1,86.8,-90,86.3L-87,91.5" stroke="#236ea1" fill="#236ea1"/></g><g id="shape58" transform="translate(1535.5,1382.5)"><path d="M0,0L65.5,0L65.5,-182.5L-47,-182.5L-47,-154.9" stroke="#236ea1" fill="none"/><path stroke-width="1" stroke-linecap="round" d="M-47,-150.5L-44,-155.7C-44.9,-155.2,-45.9,-154.9,-47,-154.9C-48.1,-154.9,-49.1,-155.2,-50,-155.7L-47,-150.5" stroke="#236ea1" fill="#236ea1"/></g><g transform="translate(1248,1459.5)"><path d="M73,62L146,31L73,0L0,31L73,62z" stroke="#3498db" id="shape59" fill="#3498db"/><text class="st1"><tspan y="34.5" x="35">Point1 >21 </tspan></text></g><g id="shape60" transform="translate(1321,1410.5)"><path d="M0,0L0,44.6" stroke="#236ea1" fill="none"/><path stroke-width="1" stroke-linecap="round" d="M0,49L3,43.8C2.1,44.3,1.1,44.6,0,44.6C-1.1,44.6,-2.1,44.3,-3,43.8L0,49" stroke="#236ea1" fill="#236ea1"/></g><g transform="translate(1053,1075.5)"><path d="M94,79L94,0L0,0L0,79L94,79z" stroke="#3498db" id="shape61" fill="#3498db"/><text class="st1"><tspan y="26" x="21">接受发给</tspan><tspan y="43" x="12">client2的卡</tspan><tspan y="60" x="21">牌并显示</tspan></text></g><g id="shape62" transform="translate(946.75,1056)"><path d="M0,0L74.3,0L74.3,59L101.9,59" stroke="#236ea1" fill="none"/><path stroke-width="1" stroke-linecap="round" d="M106.3,59L101.1,56C101.6,56.9,101.9,57.9,101.9,59C101.9,60.1,101.6,61.1,101.1,62L106.3,59" stroke="#236ea1" fill="#236ea1"/><rect y="-8.5" height="17" width="9.2" x="15.3" fill="#ffffff"/><text class="st2"><tspan y="3.5" x="15.1">N</tspan></text></g><g id="shape63" transform="translate(1147,1115)"><path d="M0,0L32,0L32,-122L-283,-122L-283,-94.4" stroke="#236ea1" fill="none"/><path stroke-width="1" stroke-linecap="round" d="M-283,-90L-280,-95.2C-280.9,-94.7,-281.9,-94.4,-283,-94.4C-284.1,-94.4,-285.1,-94.7,-286,-95.2L-283,-90" stroke="#236ea1" fill="#236ea1"/></g><g transform="translate(1413,1051)"><path d="M75.5,62L151,31L75.5,0L0,31L75.5,62z" stroke="#3498db" id="shape64" fill="#3498db"/><text class="st1"><tspan y="34.5" x="15">client 2 Point > 21</tspan></text></g><g id="shape65" transform="translate(1613,1007)"><path d="M0,0L-124.5,0L-124.5,39.6" stroke="#236ea1" fill="none"/><path stroke-width="1" stroke-linecap="round" d="M-124.5,44L-121.5,38.8C-122.4,39.3,-123.4,39.6,-124.5,39.6C-125.6,39.6,-126.6,39.3,-127.5,38.8L-124.5,44" stroke="#236ea1" fill="#236ea1"/></g><g transform="translate(1248,1125)"><path d="M94,56L94,0L0,0L0,56L94,56z" stroke="#3498db" id="shape66" fill="#3498db"/><text class="st1"><tspan y="31.5" x="10">client 1 win</tspan></text></g><g id="shape67" transform="translate(1413,1082)"><path d="M0,0L-118,0L-118,38.6" stroke="#236ea1" fill="none"/><path stroke-width="1" stroke-linecap="round" d="M-118,43L-115,37.8C-115.9,38.3,-116.9,38.6,-118,38.6C-119.1,38.6,-120.1,38.3,-121,37.8L-118,43" stroke="#236ea1" fill="#236ea1"/><rect y="-8.5" height="17" width="7.2" x="-23.9" fill="#ffffff"/><text class="st2"><tspan y="3.5" x="-24">Y</tspan></text></g><g transform="translate(1000,1253.5)"><path d="M94,56L94,0L0,0L0,56L94,56z" stroke="#3498db" id="shape68" fill="#3498db"/><text class="st1"><tspan y="31.5" x="34">平局</tspan></text></g><g transform="translate(1153,1527)"><path d="M94,56L94,0L0,0L0,56L94,56z" stroke="#3498db" id="shape69" fill="#3498db"/><text class="st1"><tspan y="31.5" x="10">client 2 win</tspan></text></g><g id="shape70" transform="translate(1248,1490.5)"><path d="M0,0L-48,0L-48,32.1" stroke="#236ea1" fill="none"/><path stroke-width="1" stroke-linecap="round" d="M-48,36.5L-45,31.3C-45.9,31.8,-46.9,32.1,-48,32.1C-49.1,32.1,-50.1,31.8,-51,31.3L-48,36.5" stroke="#236ea1" fill="#236ea1"/><rect y="-8.5" height="17" width="7.2" x="-23.9" fill="#ffffff"/><text class="st2"><tspan y="3.5" x="-24">Y</tspan></text></g><g transform="translate(1366,1515.5)"><path d="M89.5,62.5L179,31.3L89.5,0L0,31.3L89.5,62.5z" stroke="#3498db" id="shape71" fill="#3498db"/><text class="st3"><tspan y="33.3" x="24">Point 1 =21 and Point 2 = 21</tspan></text></g><g id="shape72" transform="translate(1394,1490.5)"><path d="M0,0L61.5,0L61.5,20.6" stroke="#236ea1" fill="none"/><path stroke-width="1" stroke-linecap="round" d="M61.5,25L64.5,19.8C63.6,20.3,62.6,20.6,61.5,20.6C60.4,20.6,59.4,20.3,58.5,19.8L61.5,25" stroke="#236ea1" fill="#236ea1"/><rect y="-8.5" height="17" width="9.2" x="15.3" fill="#ffffff"/><text class="st2"><tspan y="3.5" x="15.1">N</tspan></text></g><g transform="translate(1300,1597)"><path d="M94,56L94,0L0,0L0,56L94,56z" stroke="#3498db" id="shape73" fill="#3498db"/><text class="st1"><tspan y="31.5" x="34">平局</tspan></text></g><g id="shape74" transform="translate(1366,1546.75)"><path d="M0,0L-19,0L-19,45.9" stroke="#236ea1" fill="none"/><path stroke-width="1" stroke-linecap="round" d="M-19,50.3L-16,45.1C-16.9,45.6,-17.9,45.9,-19,45.9C-20.1,45.9,-21.1,45.6,-22,45.1L-19,50.3" stroke="#236ea1" fill="#236ea1"/><rect y="-7.5" height="17" width="7.2" x="-22.9" fill="#ffffff"/><text class="st2"><tspan y="4.5" x="-23">Y</tspan></text></g><g transform="translate(1507,1594)"><path d="M71,62L142,31L71,0L0,31L71,62z" stroke="#3498db" id="shape75" fill="#3498db"/><text class="st1"><tspan y="34.5" x="16">Point 1 > Point 2</tspan></text></g><g id="shape76" transform="translate(1545,1546.75)"><path d="M0,0L33,0L33,42.9" stroke="#236ea1" fill="none"/><path stroke-width="1" stroke-linecap="round" d="M33,47.3L36,42.1C35.1,42.6,34.1,42.9,33,42.9C31.9,42.9,30.9,42.6,30,42.1L33,47.3" stroke="#236ea1" fill="#236ea1"/><rect y="-8.5" height="17" width="9.2" x="15.3" fill="#ffffff"/><text class="st2"><tspan y="3.5" x="15.1">N</tspan></text></g><g transform="translate(1441.5,1710)"><path d="M94,56L94,0L0,0L0,56L94,56z" stroke="#3498db" id="shape77" fill="#3498db"/><text class="st1"><tspan y="31.5" x="10">client 1 win</tspan></text></g><g id="shape78" transform="translate(1507,1625)"><path d="M0,0L-18.5,0L-18.5,80.6" stroke="#236ea1" fill="none"/><path stroke-width="1" stroke-linecap="round" d="M-18.5,85L-15.5,79.8C-16.4,80.3,-17.4,80.6,-18.5,80.6C-19.6,80.6,-20.6,80.3,-21.5,79.8L-18.5,85" stroke="#236ea1" fill="#236ea1"/><rect y="-7" height="17" width="7.2" x="-22.4" fill="#ffffff"/><text class="st2"><tspan y="5" x="-22.5">Y</tspan></text></g><g transform="translate(1639,1710)"><path d="M94,56L94,0L0,0L0,56L94,56z" stroke="#3498db" id="shape79" fill="#3498db"/><text class="st1"><tspan y="31.5" x="10">client 2 win</tspan></text></g><g id="shape80" transform="translate(1649,1625)"><path d="M0,0L37,0L37,80.6" stroke="#236ea1" fill="none"/><path stroke-width="1" stroke-linecap="round" d="M37,85L40,79.8C39.1,80.3,38.1,80.6,37,80.6C35.9,80.6,34.9,80.3,34,79.8L37,85" stroke="#236ea1" fill="#236ea1"/><rect y="-8.5" height="17" width="9.2" x="15.3" fill="#ffffff"/><text class="st2"><tspan y="3.5" x="15.1">N</tspan></text></g><g id="shape81" transform="translate(1047,1309.5)"><path d="M0,0L0,164.5L-871,164.5L-871,-735.5L-843.4,-735.5" stroke="#236ea1" fill="none"/><path stroke-width="1" stroke-linecap="round" d="M-839,-735.5L-844.2,-738.5C-843.7,-737.6,-843.4,-736.6,-843.4,-735.5C-843.4,-734.4,-843.7,-733.4,-844.2,-732.5L-839,-735.5" stroke="#236ea1" fill="#236ea1"/></g><g id="shape82" transform="translate(1153,1555)"><path d="M0,0L-977,0L-977,-981L-949.4,-981" stroke="#236ea1" fill="none"/><path stroke-width="1" stroke-linecap="round" d="M-945,-981L-950.2,-984C-949.7,-983.1,-949.4,-982.1,-949.4,-981C-949.4,-979.9,-949.7,-978.9,-950.2,-978L-945,-981" stroke="#236ea1" fill="#236ea1"/></g><g id="shape83" transform="translate(1300,1625)"><path d="M0,0L-1124,0L-1124,-1051L-1096.4,-1051" stroke="#236ea1" fill="none"/><path stroke-width="1" stroke-linecap="round" d="M-1092,-1051L-1097.2,-1054C-1096.7,-1053.1,-1096.4,-1052.1,-1096.4,-1051C-1096.4,-1049.9,-1096.7,-1048.9,-1097.2,-1048L-1092,-1051" stroke="#236ea1" fill="#236ea1"/></g><g id="shape84" transform="translate(1441.5,1738)"><path d="M0,0L-1265.5,0L-1265.5,-1164L-1237.9,-1164" stroke="#236ea1" fill="none"/><path stroke-width="1" stroke-linecap="round" d="M-1233.5,-1164L-1238.7,-1167C-1238.2,-1166.1,-1237.9,-1165.1,-1237.9,-1164C-1237.9,-1162.9,-1238.2,-1161.9,-1238.7,-1161L-1233.5,-1164" stroke="#236ea1" fill="#236ea1"/></g><g id="shape85" transform="translate(1686,1766)"><path d="M0,0L0,32L-1510,32L-1510,-1192L-1482.4,-1192" stroke="#236ea1" fill="none"/><path stroke-width="1" stroke-linecap="round" d="M-1478,-1192L-1483.2,-1195C-1482.7,-1194.1,-1482.4,-1193.1,-1482.4,-1192C-1482.4,-1190.9,-1482.7,-1189.9,-1483.2,-1189L-1478,-1192" stroke="#236ea1" fill="#236ea1"/></g><g transform="translate(2551,241)"><path d="M23.5,56L70.5,56C83.5,56,94,45.5,94,28C94,10.5,83.5,0,70.5,0L23.5,0C10.5,0,0,10.5,0,28C0,45.5,10.5,56,23.5,56z" stroke="#3498db" id="shape86" fill="#3498db"/><text class="st1"><tspan y="31.5" x="34">开始</tspan></text></g><g transform="translate(2551,338)"><path d="M94,62L94,0L0,0L0,62L94,62z" stroke="#3498db" id="shape87" fill="#3498db"/><text class="st1"><tspan y="26" x="14">client 1 连</tspan><tspan y="43" x="41">接</tspan></text></g><g transform="translate(2551,441)"><path d="M94,62L94,0L0,0L0,62L94,62z" stroke="#3498db" id="shape88" fill="#3498db"/><text class="st1"><tspan y="26" x="14">client 2 连</tspan><tspan y="43" x="41">接</tspan></text></g><g transform="translate(2551,564)"><path d="M94,56L94,0L0,0L0,56L94,56z" stroke="#3498db" id="shape89" fill="#3498db"/><text class="st1"><tspan y="31.5" x="21">选取闲家</tspan></text></g><g transform="translate(2522.5,849.5)"><path d="M75.5,62L151,31L75.5,0L0,31L75.5,62z" stroke="#3498db" id="shape90" fill="#3498db"/><text class="st1"><tspan y="34.5" x="32">client 1为闲家</tspan></text></g><g id="shape91" transform="translate(2598,297)"><path d="M0,0L0,36.6" stroke="#236ea1" fill="none"/><path stroke-width="1" stroke-linecap="round" d="M0,41L3,35.8C2.1,36.3,1.1,36.6,0,36.6C-1.1,36.6,-2.1,36.3,-3,35.8L0,41" stroke="#236ea1" fill="#236ea1"/></g><g id="shape92" transform="translate(2598,400)"><path d="M0,0L0,36.6" stroke="#236ea1" fill="none"/><path stroke-width="1" stroke-linecap="round" d="M0,41L3,35.8C2.1,36.3,1.1,36.6,0,36.6C-1.1,36.6,-2.1,36.3,-3,35.8L0,41" stroke="#236ea1" fill="#236ea1"/></g><g id="shape93" transform="translate(2598,503)"><path d="M0,0L0,56.6" stroke="#236ea1" fill="none"/><path stroke-width="1" stroke-linecap="round" d="M0,61L3,55.8C2.1,56.3,1.1,56.6,0,56.6C-1.1,56.6,-2.1,56.3,-3,55.8L0,61" stroke="#236ea1" fill="#236ea1"/></g><g transform="translate(2551,647)"><path d="M94,62L94,0L0,0L0,62L94,62z" stroke="#3498db" id="shape94" fill="#3498db"/><text class="st1"><tspan y="26" x="8">生成对应的数</tspan><tspan y="43" x="14">据以及卡牌</tspan></text></g><g transform="translate(2551,743.5)"><path d="M94,79L94,0L0,0L0,79L94,79z" stroke="#3498db" id="shape95" fill="#3498db"/><text class="st1"><tspan y="26" x="8">向客户端一和</tspan><tspan y="43" x="8">客户端二发送</tspan><tspan y="60" x="34">数据</tspan></text></g><g id="shape96" transform="translate(2598,709)"><path d="M0,0L0,30.1" stroke="#236ea1" fill="none"/><path stroke-width="1" stroke-linecap="round" d="M0,34.5L3,29.3C2.1,29.8,1.1,30.1,0,30.1C-1.1,30.1,-2.1,29.8,-3,29.3L0,34.5" stroke="#236ea1" fill="#236ea1"/></g><g transform="translate(2320,990)"><path d="M80,62L160,31L80,0L0,31L80,62z" stroke="#3498db" id="shape97" fill="#3498db"/><text class="st1"><tspan y="34.5" x="30">client1 是否停牌</tspan></text></g><g transform="translate(2353,1142.55)"><path d="M94,96L94,0L0,0L0,96L94,96z" stroke="#3498db" id="shape98" fill="#3498db"/><text class="st1"><tspan y="26" x="10">接收client 1 </tspan><tspan y="43" x="8">发来的数据并</tspan><tspan y="60" x="28">转发给</tspan><tspan y="77" x="25">client2</tspan></text></g><g id="shape99" transform="translate(2400,1052)"><path d="M0,0L0,86.2" stroke="#236ea1" fill="none"/><path stroke-width="1" stroke-linecap="round" d="M0,90.6L3,85.4C2.1,85.9,1.1,86.2,0,86.2C-1.1,86.2,-2.1,85.9,-3,85.4L0,90.6" stroke="#236ea1" fill="#236ea1"/><rect y="11.5" height="17" width="9.2" x="-4.7" fill="#ffffff"/><text class="st2"><tspan y="23.5" x="-4.9">N</tspan></text></g><g id="shape100" transform="translate(2353,1190.55)"><path d="M0,0L-65,0L-65,-169.6L-37.4,-169.6" stroke="#236ea1" fill="none"/><path stroke-width="1" stroke-linecap="round" d="M-33,-169.6L-38.2,-172.6C-37.7,-171.7,-37.4,-170.6,-37.4,-169.6C-37.4,-168.5,-37.7,-167.4,-38.2,-166.6L-33,-169.6" stroke="#236ea1" fill="#236ea1"/></g><g id="shape101" transform="translate(2480,1021)"><path d="M0,0L179.6,0L179.6,60.1" stroke="#236ea1" fill="none"/><path stroke-width="1" stroke-linecap="round" d="M179.6,64.5L182.6,59.3C181.7,59.8,180.7,60.1,179.6,60.1C178.5,60.1,177.5,59.8,176.6,59.3L179.6,64.5" stroke="#236ea1" fill="#236ea1"/></g><g transform="translate(2579.26,1085.5)"><path d="M80.4,95.5L160.8,47.8L80.4,0L0,47.8L80.4,95.5z" stroke="#3498db" id="shape102" fill="#3498db"/><text class="st1"><tspan y="51.3" x="40.4">Point 1 > 21</tspan></text></g><g id="shape103" transform="translate(2579.25,1133.25)"><path d="M0,0L-66.3,0L-66.3,115.9" stroke="#236ea1" fill="none"/><path stroke-width="1" stroke-linecap="round" d="M-66.3,120.3L-63.3,115.1C-64.1,115.6,-65.2,115.9,-66.3,115.9C-67.3,115.9,-68.4,115.6,-69.3,115.1L-66.3,120.3" stroke="#236ea1" fill="#236ea1"/><rect y="-8.5" height="17" width="7.2" x="-23.9" fill="#ffffff"/><text class="st2"><tspan y="3.5" x="-24">Y</tspan></text></g><g transform="translate(2466,1253.5)"><path d="M94,56L94,0L0,0L0,56L94,56z" stroke="#3498db" id="shape104" fill="#3498db"/><text class="st1"><tspan y="31.5" x="21">游戏结束</tspan></text></g><g id="shape105" transform="translate(2740,1133.25)"><path d="M0,0L104.5,0L104.5,115.9" stroke="#236ea1" fill="none"/><path stroke-width="1" stroke-linecap="round" d="M104.5,120.3L107.5,115.1C106.6,115.6,105.6,115.9,104.5,115.9C103.4,115.9,102.4,115.6,101.5,115.1L104.5,120.3" stroke="#236ea1" fill="#236ea1"/><rect y="-8.5" height="17" width="9.2" x="15.3" fill="#ffffff"/><text class="st2"><tspan y="3.5" x="15.1">N</tspan></text></g><g transform="translate(2769,1253.5)"><path d="M75.5,88.5L151,44.3L75.5,0L0,44.3L75.5,88.5z" stroke="#3498db" id="shape106" fill="#3498db"/><text class="st1"><tspan y="47.8" x="23">client 2 是否停牌</tspan></text></g><g transform="translate(2797.5,1389)"><path d="M94,104L94,0L0,0L0,104L94,104z" stroke="#3498db" id="shape107" fill="#3498db"/><text class="st1"><tspan y="30" x="10">接受client 2 </tspan><tspan y="47" x="8">发来的数据并</tspan><tspan y="64" x="10">转发给client </tspan><tspan y="81" x="43">1</tspan></text></g><g id="shape108" transform="translate(2844.5,1342)"><path d="M0,0L0,42.6" stroke="#236ea1" fill="none"/><path stroke-width="1" stroke-linecap="round" d="M0,47L3,41.8C2.1,42.3,1.1,42.6,0,42.6C-1.1,42.6,-2.1,42.3,-3,41.8L0,47" stroke="#236ea1" fill="#236ea1"/><rect y="11.5" height="17" width="9.2" x="-4.7" fill="#ffffff"/><text class="st2"><tspan y="23.5" x="-4.9">N</tspan></text></g><g id="shape109" transform="translate(2797.5,1441)"><path d="M0,0L-60.5,0L-60.5,-143.3L-32.9,-143.3" stroke="#236ea1" fill="none"/><path stroke-width="1" stroke-linecap="round" d="M-28.5,-143.3L-33.7,-146.3C-33.2,-145.4,-32.9,-144.3,-32.9,-143.3C-32.9,-142.2,-33.2,-141.1,-33.7,-140.3L-28.5,-143.3" stroke="#236ea1" fill="#236ea1"/></g><g transform="translate(2996,1354.5)"><path d="M94,56L94,0L0,0L0,56L94,56z" stroke="#3498db" id="shape110" fill="#3498db"/><text class="st1"><tspan y="31.5" x="21">游戏结束</tspan></text></g><g id="shape111" transform="translate(2920,1297.75)"><path d="M0,0L123,0L123,52.4" stroke="#236ea1" fill="none"/><path stroke-width="1" stroke-linecap="round" d="M123,56.8L126,51.6C125.1,52.1,124.1,52.4,123,52.4C121.9,52.4,120.9,52.1,120,51.6L123,56.8" stroke="#236ea1" fill="#236ea1"/><rect y="-8.5" height="17" width="7.2" x="16.1" fill="#ffffff"/><text class="st2"><tspan y="3.5" x="16">Y</tspan></text></g><g transform="translate(3079.5,972)"><path d="M75.5,62L151,31L75.5,0L0,31L75.5,62z" stroke="#3498db" id="shape112" fill="#3498db"/><text class="st1"><tspan y="34.5" x="25">client 2是否停牌</tspan></text></g><g transform="translate(3108,1105)"><path d="M94,96L94,0L0,0L0,96L94,96z" stroke="#3498db" id="shape113" fill="#3498db"/><text class="st1"><tspan y="26" x="10">接收client 2 </tspan><tspan y="43" x="8">发来的数据并</tspan><tspan y="60" x="28">转发给</tspan><tspan y="77" x="25">client1</tspan></text></g><g id="shape114" transform="translate(3108,1153)"><path d="M0,0L-60.5,0L-60.5,-150L-32.9,-150" stroke="#236ea1" fill="none"/><path stroke-width="1" stroke-linecap="round" d="M-28.5,-150L-33.7,-153C-33.2,-152.1,-32.9,-151.1,-32.9,-150C-32.9,-148.9,-33.2,-147.9,-33.7,-147L-28.5,-150" stroke="#236ea1" fill="#236ea1"/></g><g id="shape115" transform="translate(3155,1034)"><path d="M0,0L0,66.6" stroke="#236ea1" fill="none"/><path stroke-width="1" stroke-linecap="round" d="M0,71L3,65.8C2.1,66.3,1.1,66.6,0,66.6C-1.1,66.6,-2.1,66.3,-3,65.8L0,71" stroke="#236ea1" fill="#236ea1"/><rect y="11.5" height="17" width="9.2" x="-4.7" fill="#ffffff"/><text class="st2"><tspan y="23.5" x="-4.9">N</tspan></text></g><g transform="translate(3302,1037)"><path d="M61.5,62L123,31L61.5,0L0,31L61.5,62z" stroke="#3498db" id="shape116" fill="#3498db"/><text class="st1"><tspan y="34.5" x="21">Point 2 > 21</tspan></text></g><g id="shape117" transform="translate(3230.5,1003)"><path d="M0,0L133,0L133,29.6" stroke="#236ea1" fill="none"/><path stroke-width="1" stroke-linecap="round" d="M133,34L136,28.8C135.1,29.3,134.1,29.6,133,29.6C131.9,29.6,130.9,29.3,130,28.8L133,34" stroke="#236ea1" fill="#236ea1"/><rect y="-8.5" height="17" width="7.2" x="16.1" fill="#ffffff"/><text class="st2"><tspan y="3.5" x="16">Y</tspan></text></g><g transform="translate(3439,1437)"><path d="M94,56L94,0L0,0L0,56L94,56z" stroke="#3498db" id="shape118" fill="#3498db"/><text class="st1"><tspan y="31.5" x="21">游戏结束</tspan></text></g><g id="shape119" transform="translate(3302,1068)"><path d="M0,0L-32,0L-32,337L184,337L184,364.6" stroke="#236ea1" fill="none"/><path stroke-width="1" stroke-linecap="round" d="M184,369L187,363.8C186.1,364.3,185.1,364.6,184,364.6C182.9,364.6,181.9,364.3,181,363.8L184,369" stroke="#236ea1" fill="#236ea1"/><rect y="-8.5" height="17" width="7.2" x="-23.9" fill="#ffffff"/><text class="st2"><tspan y="3.5" x="-24">Y</tspan></text></g><g transform="translate(3458,1142)"><path d="M61.5,62L123,31L61.5,0L0,31L61.5,62z" stroke="#3498db" id="shape120" fill="#3498db"/><text class="st1"><tspan y="34.5" x="9">client 1 是否停牌</tspan></text></g><g id="shape121" transform="translate(3425,1068)"><path d="M0,0L94.5,0L94.5,69.6" stroke="#236ea1" fill="none"/><path stroke-width="1" stroke-linecap="round" d="M94.5,74L97.5,68.8C96.6,69.3,95.6,69.6,94.5,69.6C93.4,69.6,92.4,69.3,91.5,68.8L94.5,74" stroke="#236ea1" fill="#236ea1"/><rect y="-8.5" height="17" width="9.2" x="15.3" fill="#ffffff"/><text class="st2"><tspan y="3.5" x="15.1">N</tspan></text></g><g transform="translate(3472.5,1253.5)"><path d="M94,79L94,0L0,0L0,79L94,79z" stroke="#3498db" id="shape122" fill="#3498db"/><text class="st1"><tspan y="26" x="10">接收client 1 </tspan><tspan y="43" x="8">发来的数据并</tspan><tspan y="60" x="6">转发给client2</tspan></text></g><g id="shape123" transform="translate(3519.5,1204)"><path d="M0,0L0,45.1" stroke="#236ea1" fill="none"/><path stroke-width="1" stroke-linecap="round" d="M0,49.5L3,44.3C2.1,44.8,1.1,45.1,0,45.1C-1.1,45.1,-2.1,44.8,-3,44.3L0,49.5" stroke="#236ea1" fill="#236ea1"/><rect y="11.5" height="17" width="9.2" x="-4.7" fill="#ffffff"/><text class="st2"><tspan y="23.5" x="-4.9">N</tspan></text></g><g id="shape124" transform="translate(3519.5,1253.5)"><path d="M0,0L0,-17.5L-93.5,-17.5L-93.5,-80.5L-65.9,-80.5" stroke="#236ea1" fill="none"/><path stroke-width="1" stroke-linecap="round" d="M-61.5,-80.5L-66.7,-83.5C-66.2,-82.6,-65.9,-81.6,-65.9,-80.5C-65.9,-79.4,-66.2,-78.4,-66.7,-77.5L-61.5,-80.5" stroke="#236ea1" fill="#236ea1"/></g><g id="shape125" transform="translate(3519.5,1204)"><path d="M0,0L0,17.5L79,17.5L79,261L17.9,261" stroke="#236ea1" fill="none"/><path stroke-width="1" stroke-linecap="round" d="M13.5,261L18.7,264C18.2,263.1,17.9,262.1,17.9,261C17.9,259.9,18.2,258.9,18.7,258L13.5,261" stroke="#236ea1" fill="#236ea1"/><rect y="9" height="17" width="7.2" x="-1.4" fill="#ffffff"/><text class="st2"><tspan y="21" x="-1.5">Y</tspan></text></g><g transform="translate(3108,1517)"><path d="M23.5,56L70.5,56C83.5,56,94,45.5,94,28C94,10.5,83.5,0,70.5,0L23.5,0C10.5,0,0,10.5,0,28C0,45.5,10.5,56,23.5,56z" stroke="#3498db" id="shape126" fill="#3498db"/><text class="st1"><tspan y="31.5" x="34">结束</tspan></text></g><g id="shape127" transform="translate(3439,1465)"><path d="M0,0L-232.6,0" stroke="#236ea1" fill="none"/><path stroke-width="1" stroke-linecap="round" d="M-237,0L-231.8,3C-232.3,2.1,-232.6,1.1,-232.6,0C-232.6,-1.1,-232.3,-2.1,-231.8,-3L-237,0" stroke="#236ea1" fill="#236ea1"/></g><g transform="translate(3108,1437)"><path d="M94,56L94,0L0,0L0,56L94,56z" stroke="#3498db" id="shape128" fill="#3498db"/><text class="st1"><tspan y="31.5" x="21">断开连接</tspan></text></g><g id="shape129" transform="translate(3155,1493)"><path d="M0,0L0,19.6" stroke="#236ea1" fill="none"/><path stroke-width="1" stroke-linecap="round" d="M0,24L3,18.8C2.1,19.3,1.1,19.6,0,19.6C-1.1,19.6,-2.1,19.3,-3,18.8L0,24" stroke="#236ea1" fill="#236ea1"/></g><g id="shape130" transform="translate(2598,620)"><path d="M0,0L0,22.6" stroke="#236ea1" fill="none"/><path stroke-width="1" stroke-linecap="round" d="M0,27L3,21.8C2.1,22.3,1.1,22.6,0,22.6C-1.1,22.6,-2.1,22.3,-3,21.8L0,27" stroke="#236ea1" fill="#236ea1"/></g><g id="shape131" transform="translate(2598,822.5)"><path d="M0,0L0,22.6" stroke="#236ea1" fill="none"/><path stroke-width="1" stroke-linecap="round" d="M0,27L3,21.8C2.1,22.3,1.1,22.6,0,22.6C-1.1,22.6,-2.1,22.3,-3,21.8L0,27" stroke="#236ea1" fill="#236ea1"/></g><g id="shape132" transform="translate(2522.5,880.5)"><path d="M0,0L-122.5,0L-122.5,105.1" stroke="#236ea1" fill="none"/><path stroke-width="1" stroke-linecap="round" d="M-122.5,109.5L-119.5,104.3C-120.4,104.8,-121.4,105.1,-122.5,105.1C-123.6,105.1,-124.6,104.8,-125.5,104.3L-122.5,109.5" stroke="#236ea1" fill="#236ea1"/><rect y="-8.5" height="17" width="7.2" x="-23.9" fill="#ffffff"/><text class="st2"><tspan y="3.5" x="-24">Y</tspan></text></g><g id="shape133" transform="translate(2673.5,880.5)"><path d="M0,0L481.5,0L481.5,87.1" stroke="#236ea1" fill="none"/><path stroke-width="1" stroke-linecap="round" d="M481.5,91.5L484.5,86.3C483.6,86.8,482.6,87.1,481.5,87.1C480.4,87.1,479.4,86.8,478.5,86.3L481.5,91.5" stroke="#236ea1" fill="#236ea1"/><rect y="-8.5" height="17" width="9.2" x="15.3" fill="#ffffff"/><text class="st2"><tspan y="3.5" x="15.1">N</tspan></text></g></g></svg>